<?xml version="1.0" encoding="iso-8859-1"?>
<!-- Generator: Adobe Illustrator 19.0.0, SVG Export Plug-In . SVG Version: 6.00 Build 0)  -->
<svg version="1.1" id="Layer_1" xmlns="http://www.w3.org/2000/svg" xmlns:xlink="http://www.w3.org/1999/xlink" x="0px" y="0px"
	 viewBox="0 0 512 512" style="enable-background:new 0 0 512 512;" xml:space="preserve">
<g>
	<g>
		<path d="M482.075,150.56V61.816H29.925v88.744H0v299.623h512V150.56H482.075z M63.317,95.208h385.367v55.353H328.964v-18.398
			h-33.391v18.398h-22.878v-18.398h-33.391v18.398h-22.879v-18.398h-33.391v18.398H63.317V95.208z M478.609,416.792H33.391V183.952
			h445.217V416.792z"/>
	</g>
</g>
<g>
	<g>
		<path d="M131.919,226.958c-46.598,0-84.507,37.909-84.507,84.507c0,46.598,37.909,84.507,84.507,84.507
			c46.598,0,84.507-37.909,84.507-84.507C216.426,264.868,178.517,226.958,131.919,226.958z M131.919,362.581
			c-28.185,0-51.115-22.931-51.115-51.115s22.931-51.115,51.115-51.115c28.184,0,51.115,22.931,51.115,51.115
			C183.034,339.65,160.104,362.581,131.919,362.581z"/>
	</g>
</g>
<g>
	<g>
		<path d="M380.081,226.958c-46.596,0-84.507,37.909-84.507,84.507c0,46.598,37.909,84.507,84.507,84.507
			c46.596,0,84.507-37.909,84.507-84.507C464.588,264.868,426.677,226.958,380.081,226.958z M380.081,362.581
			c-28.185,0-51.115-22.931-51.115-51.115s22.93-51.115,51.115-51.115c28.184,0,51.115,22.931,51.115,51.115
			C431.196,339.65,408.266,362.581,380.081,362.581z"/>
	</g>
</g>
<g>
	<g>
		<rect x="199.725" y="200.481" width="112.54" height="33.391"/>
	</g>
</g>
<g>
</g>
<g>
</g>
<g>
</g>
<g>
</g>
<g>
</g>
<g>
</g>
<g>
</g>
<g>
</g>
<g>
</g>
<g>
</g>
<g>
</g>
<g>
</g>
<g>
</g>
<g>
</g>
<g>
</g>
</svg>
