<svg id="SvgjsSvg1019" xmlns="http://www.w3.org/2000/svg" version="1.1" xmlns:xlink="http://www.w3.org/1999/xlink" xmlns:svgjs="http://svgjs.com/svgjs" width="66" height="70" viewBox="0 0 66 70"><title>Shape 1</title><desc>Created with Avocode.</desc><defs id="SvgjsDefs1020"></defs><path id="SvgjsPath1021" d="M1367.56 4191.82L1367.32 4191.75C1363.74 4190.78 1362.53 4189.85 1360.9399999999998 4189.23C1355.2999999999997 4187.0599999999995 1353.84 4185.49 1353.4599999999998 4184.74C1353.4499999999998 4184.719999999999 1353.4399999999998 4184.69 1353.4299999999998 4184.66L1353.3899999999999 4179.67C1356.4099999999999 4175.58 1358.56 4170.47 1358.56 4165.18C1358.56 4165.18 1360.6 4156.39 1355.73 4148.110000000001V4148.070000000001C1355.72 4148.070000000001 1355.72 4148.070000000001 1355.71 4148.080000000001C1354.65 4146.290000000001 1353.28 4144.530000000001 1351.48 4142.880000000001C1349.6100000000001 4141.160000000001 1344.99 4139.000000000001 1339.41 4139.000000000001C1335.5900000000001 4139.000000000001 1331.3200000000002 4140.010000000001 1327.19 4142.880000000001C1319.17 4148.450000000001 1319.98 4162.490000000001 1319.98 4162.490000000001C1319.98 4162.490000000001 1320.54 4162.630000000001 1321.55 4162.760000000001C1321.47 4163.550000000001 1321.44 4164.3600000000015 1321.44 4165.180000000001C1321.44 4170.470000000001 1323.5900000000001 4175.580000000001 1326.6100000000001 4179.670000000001L1326.5700000000002 4184.660000000001C1326.5600000000002 4184.6900000000005 1326.5500000000002 4184.720000000001 1326.5400000000002 4184.750000000001C1326.16 4185.490000000001 1324.7000000000003 4187.060000000001 1319.0600000000002 4189.2300000000005C1317.4700000000003 4189.85 1316.2600000000002 4190.780000000001 1312.68 4191.750000000001L1312.44 4191.820000000001C1309.19 4192.910000000001 1307 4195.97 1307 4199.410000000001V4209.000000000001H1373V4199.410000000001C1373 4195.970000000001 1370.81 4192.910000000001 1367.56 4191.820000000001ZM1354.34 4151.74C1355.1399999999999 4153.57 1355.6699999999998 4155.55 1355.9299999999998 4157.639999999999C1355.9699999999998 4157.969999999999 1355.9999999999998 4158.289999999999 1356.0299999999997 4158.599999999999C1355.5599999999997 4157.719999999999 1355.0599999999997 4156.969999999999 1354.4799999999998 4156.32C1353.8499999999997 4155.59 1353.1499999999999 4155 1352.3799999999999 4154.54C1352.9599999999998 4153.11 1353.6899999999998 4152.26 1354.34 4151.74ZM1323.42 4155.2C1323.8400000000001 4153.05 1324.46 4151.15 1325.27 4149.5599999999995C1326.21 4147.709999999999 1327.4 4146.2699999999995 1328.81 4145.289999999999C1332.04 4143.049999999999 1335.61 4141.919999999999 1339.4099999999999 4141.919999999999C1344.31 4141.919999999999 1348.2299999999998 4143.839999999999 1349.55 4145.049999999999C1350.8899999999999 4146.279999999999 1352.04 4147.65 1352.98 4149.15C1351.84 4149.92 1350.57 4151.259999999999 1349.67 4153.54C1349.2 4153.46 1348.71 4153.42 1348.21 4153.42C1346.06 4153.42 1343.75 4154.16 1341.13 4155.67C1334.8300000000002 4159.32 1329.0100000000002 4160.08 1325.23 4160.08C1324.32 4160.08 1323.53 4160.04 1322.8700000000001 4159.98C1322.92 4158.7 1323.0700000000002 4157.009999999999 1323.42 4155.2ZM1333.28 4206.08H1309.8799999999999V4199.41C1309.8799999999999 4197.24 1311.2499999999998 4195.3099999999995 1313.3 4194.61L1313.46 4194.5599999999995C1316.15 4193.83 1317.64 4193.11 1318.83 4192.53C1319.29 4192.3 1319.6899999999998 4192.11 1320.08 4191.96C1322.21 4191.14 1324.86 4190 1326.81 4188.56L1332.9199999999998 4191.8L1333.9799999999998 4190.900000000001L1334.7199999999998 4194.670000000001ZM1328.92 4186.39C1328.99 4186.29 1329.0500000000002 4186.18 1329.1000000000001 4186.08C1329.15 4185.98 1329.19 4185.89 1329.21 4185.84L1329.45 4185.3V4184.68L1329.47 4183C1331.02 4184.55 1332.67 4185.85 1334.3 4186.8L1332.54 4188.31ZM1336.18 4206.08L1337.47 4195.87H1342.52L1343.98 4206.08ZM1336.49 4188.74L1337.19 4188.139999999999C1338.18 4188.469999999999 1339.1200000000001 4188.65 1340 4188.65C1340.92 4188.65 1341.93 4188.45 1342.97 4188.089999999999L1343.54 4188.579999999999L1342.68 4192.959999999999H1337.3200000000002ZM1340 4185.73C1338.81 4185.73 1337.24 4185.179999999999 1335.59 4184.19C1333.74 4183.07 1331.8899999999999 4181.48 1330.23 4179.57C1326.47 4175.23 1324.31 4169.98 1324.31 4165.179999999999C1324.31 4164.429999999999 1324.35 4163.7 1324.4199999999998 4162.99C1324.6799999999998 4162.99 1324.9499999999998 4163 1325.2299999999998 4163C1329.4399999999998 4163 1335.7599999999998 4162.14 1342.5599999999997 4158.2C1344.8499999999997 4156.88 1346.6999999999998 4156.34 1348.2099999999998 4156.34C1351.84 4156.34 1353.4799999999998 4159.45 1354.4599999999998 4162.27C1354.7999999999997 4163.240000000001 1355.2299999999998 4163.900000000001 1355.6699999999998 4164.360000000001C1355.6799999999998 4164.630000000001 1355.6899999999998 4164.900000000001 1355.6899999999998 4165.18C1355.6899999999998 4169.9800000000005 1353.5299999999997 4175.2300000000005 1349.7699999999998 4179.570000000001C1348.1099999999997 4181.4800000000005 1346.2599999999998 4183.080000000001 1344.4099999999999 4184.1900000000005C1342.7599999999998 4185.18 1341.1899999999998 4185.7300000000005 1339.9999999999998 4185.7300000000005ZM1351.13 4186.48L1347.68 4188.3099999999995L1345.8300000000002 4186.719999999999C1347.42 4185.78 1349.0200000000002 4184.509999999999 1350.5300000000002 4182.999999999999L1350.5500000000002 4184.679999999999V4185.299999999999L1350.7900000000002 4185.839999999999C1350.8100000000002 4185.889999999999 1350.8500000000001 4185.969999999999 1350.9 4186.079999999999C1350.97 4186.209999999999 1351.0500000000002 4186.349999999999 1351.13 4186.479999999999ZM1346.89 4206.08L1345.2700000000002 4194.72L1346.0500000000002 4190.7300000000005L1347.3000000000002 4191.8L1353.2800000000002 4188.63C1355.2300000000002 4190.04 1357.8300000000002 4191.150000000001 1359.9200000000003 4191.96C1360.3100000000004 4192.11 1360.7100000000003 4192.3 1361.1700000000003 4192.53C1362.3600000000004 4193.11 1363.8500000000004 4193.83 1366.5400000000002 4194.5599999999995L1366.7000000000003 4194.61C1368.7500000000002 4195.32 1370.1200000000003 4197.24 1370.1200000000003 4199.41V4206.08Z " fill="#51c2ca" fill-opacity="1" transform="matrix(1,0,0,1,-1307,-4139)"></path></svg>