<svg id="SvgjsSvg1013" xmlns="http://www.w3.org/2000/svg" version="1.1" xmlns:xlink="http://www.w3.org/1999/xlink" xmlns:svgjs="http://svgjs.com/svgjs" width="76" height="59" viewBox="0 0 76 59"><title>Shape 1</title><desc>Created with Avocode.</desc><defs id="SvgjsDefs1014"></defs><path id="SvgjsPath1015" d="M588.458 4183.98H584.1379999999999C583.5039999999999 4183.98 582.9899999999999 4184.5 582.9899999999999 4185.15C582.9899999999999 4185.79 583.5039999999999 4186.3099999999995 584.1379999999999 4186.3099999999995H588.458C589.092 4186.3099999999995 589.606 4185.789999999999 589.606 4185.15C589.606 4184.5 589.092 4183.98 588.458 4183.98ZM556.78 4192.59C554.7479999999999 4192.59 553.095 4194.26 553.095 4196.31C553.095 4198.370000000001 554.748 4200.04 556.78 4200.04C558.812 4200.04 560.466 4198.37 560.466 4196.31C560.466 4194.26 558.812 4192.59 556.78 4192.59ZM556.78 4197.72C556.015 4197.72 555.3919999999999 4197.09 555.3919999999999 4196.31C555.3919999999999 4195.54 556.015 4194.910000000001 556.78 4194.910000000001C557.5459999999999 4194.910000000001 558.169 4195.540000000001 558.169 4196.31C558.169 4197.09 557.5459999999999 4197.72 556.78 4197.72ZM605.907 4192.59C603.875 4192.59 602.2220000000001 4194.26 602.2220000000001 4196.31C602.2220000000001 4198.370000000001 603.8750000000001 4200.04 605.907 4200.04C607.9390000000001 4200.04 609.592 4198.37 609.592 4196.31C609.592 4194.26 607.939 4192.59 605.907 4192.59ZM605.907 4197.72C605.1410000000001 4197.72 604.518 4197.09 604.518 4196.31C604.518 4195.54 605.1410000000001 4194.910000000001 605.907 4194.910000000001C606.673 4194.910000000001 607.2950000000001 4195.540000000001 607.2950000000001 4196.31C607.2950000000001 4197.09 606.672 4197.72 605.907 4197.72ZM616.913 4189.2C616.62 4186.88 615.604 4184.65 614.022 4182.94C612.5110000000001 4181.299999999999 610.519 4180.139999999999 608.359 4179.639999999999L603.794 4175.23C600.939 4172.48 597.192 4170.959999999999 593.242 4170.959999999999H584.39C579.4879999999999 4170.959999999999 574.5749999999999 4172.129999999999 570.183 4174.339999999999C569.615 4174.619999999999 569.384 4175.319999999999 569.6659999999999 4175.889999999999C569.949 4176.469999999999 570.6379999999999 4176.7 571.2059999999999 4176.41C575.2819999999999 4174.36 579.8409999999999 4173.28 584.3899999999999 4173.28H590.2459999999999L591.1719999999999 4180.2L562.8029999999999 4181.3099999999995L567.1109999999999 4178.759999999999C567.6579999999999 4178.429999999999 567.8409999999999 4177.719999999999 567.5199999999999 4177.169999999999C567.1989999999998 4176.619999999999 566.4959999999999 4176.429999999999 565.9479999999999 4176.759999999999L557.9389999999999 4181.499999999999L553.8949999999999 4181.689999999999C552.6129999999998 4181.739999999999 551.3769999999998 4182.019999999999 550.2289999999998 4182.499999999999C550.1989999999998 4182.509999999999 550.1679999999998 4182.5199999999995 550.1379999999998 4182.529999999999C547.7709999999998 4183.519999999999 545.8519999999999 4185.279999999999 544.6489999999998 4187.509999999998C544.3929999999998 4187.979999999999 544.1719999999998 4188.469999999998 543.9839999999998 4188.979999999999C543.6089999999998 4189.979999999999 543.3329999999999 4191.039999999999 543.0179999999998 4192.069999999999C542.7579999999998 4192.919999999999 542.4969999999998 4193.769999999999 542.2359999999998 4194.619999999999C542.2079999999997 4194.709999999999 542.1799999999997 4194.799999999999 542.1519999999998 4194.899999999999C541.8299999999998 4195.949999999999 542.0159999999998 4197.059999999999 542.6619999999998 4197.939999999999C543.3069999999998 4198.819999999999 544.2999999999998 4199.329999999999 545.3869999999998 4199.329999999999H549.7859999999998C550.9489999999998 4202.069999999999 553.6459999999998 4203.999999999999 556.7799999999999 4203.999999999999C559.9139999999999 4203.999999999999 562.6109999999999 4202.069999999999 563.7739999999999 4199.329999999999C563.7739999999999 4199.329999999999 567.9259999999999 4199.329999999999 567.9299999999998 4199.329999999999H598.9119999999998C600.0749999999998 4202.069999999999 602.7719999999998 4203.999999999999 605.9059999999998 4203.999999999999C609.0409999999998 4203.999999999999 611.7379999999998 4202.069999999999 612.8999999999999 4199.329999999999H615.8509999999999C616.4859999999999 4199.329999999999 616.9999999999999 4198.809999999999 616.9999999999999 4198.169999999999V4190.579999999999C616.9999999999999 4190.119999999999 616.9709999999999 4189.659999999999 616.9129999999999 4189.199999999999ZM611.495 4183.72C611.5120000000001 4183.7300000000005 611.528 4183.740000000001 611.544 4183.76C613.0029999999999 4184.99 614.043 4186.7 614.4739999999999 4188.570000000001C612.7839999999999 4188.27 611.4949999999999 4186.780000000001 611.4949999999999 4184.9800000000005ZM593.243 4173.28C596.5980000000001 4173.28 599.782 4174.57 602.2080000000001 4176.91L605.0480000000001 4179.65L593.4770000000001 4180.11L592.5640000000001 4173.28ZM546.323 4189.32C546.372 4189.21 546.423 4189.09 546.478 4188.98C546.4789999999999 4188.98 546.481 4188.98 546.482 4188.969999999999C547.1759999999999 4187.549999999999 548.23 4186.349999999999 549.51 4185.49V4185.8099999999995C549.51 4187.69 548.09 4189.249999999999 546.275 4189.44C546.2909999999999 4189.4 546.3059999999999 4189.36 546.323 4189.32ZM561.096 4199.43C560.554 4200.200000000001 559.814 4200.81 558.966 4201.200000000001C558.2810000000001 4201.52 557.532 4201.68 556.78 4201.68C555.629 4201.68 554.496 4201.29 553.579 4200.59C552.6339999999999 4199.860000000001 551.943 4198.83 551.646 4197.66C551.5329999999999 4197.22 551.472 4196.7699999999995 551.472 4196.3099999999995C551.472 4193.349999999999 553.853 4190.95 556.78 4190.95C559.707 4190.95 562.0889999999999 4193.349999999999 562.0889999999999 4196.32C562.088 4197.429999999999 561.736 4198.53 561.0959999999999 4199.429999999999ZM564.386 4196.31C564.386 4192.070000000001 560.9739999999999 4188.63 556.78 4188.63C552.587 4188.63 549.175 4192.07 549.175 4196.31C549.175 4196.320000000001 549.175 4196.320000000001 549.175 4196.320000000001C549.175 4196.540000000001 549.185 4196.780000000001 549.2059999999999 4197.01H545.3879999999999C545.0379999999999 4197.01 544.718 4196.85 544.5099999999999 4196.56C544.3029999999999 4196.280000000001 544.2429999999998 4195.92 544.3459999999999 4195.580000000001L545.5149999999999 4191.760000000001C545.6449999999999 4191.770000000001 545.7749999999999 4191.780000000002 545.9049999999999 4191.780000000002C549.1599999999999 4191.780000000002 551.8069999999999 4189.100000000001 551.8069999999999 4185.810000000001V4184.480000000001C551.8069999999999 4184.450000000002 551.8059999999999 4184.420000000001 551.805 4184.390000000001C552.507 4184.170000000001 553.242 4184.040000000001 553.997 4184.000000000001C553.997 4184.000000000001 558.318 4183.810000000001 558.319 4183.810000000001L565.021 4183.550000000001C564.5889999999999 4186.300000000001 563.992 4192.3200000000015 566.011 4197.010000000001H564.355C564.375 4196.780000000002 564.386 4196.550000000001 564.386 4196.310000000001ZM583.002 4197.01H568.5709999999999C566.1179999999999 4192.62 566.9639999999999 4185.84 567.3689999999999 4183.46L591.425 4182.51C591.5609999999999 4184.91 591.5619999999999 4190.85 588.668 4194.33C587.273 4196.01 585.42 4196.89 583.002 4197.01ZM611.204 4196.66C611.021 4199.43 608.6769999999999 4201.68 605.9069999999999 4201.68C603.0409999999999 4201.68 600.598 4199.21 600.598 4196.31C600.598 4193.35 602.9799999999999 4190.950000000001 605.9069999999999 4190.950000000001C608.834 4190.950000000001 611.2149999999999 4193.35 611.2149999999999 4196.31C611.2149999999999 4196.43 611.2119999999999 4196.55 611.204 4196.660000000001ZM613.481 4197.01C613.867 4192.72 610.542 4188.85 606.298 4188.64C606.168 4188.63 606.038 4188.63 605.907 4188.63C601.7130000000001 4188.63 598.301 4192.07 598.301 4196.31C598.301 4196.54 598.312 4196.780000000001 598.332 4197.01H589.261C589.677 4196.650000000001 590.068 4196.26 590.432 4195.820000000001C593.8480000000001 4191.700000000001 593.883 4185.170000000001 593.725 4182.420000000001L607.702 4181.870000000001C608.269 4181.990000000001 608.814 4182.170000000001 609.332 4182.390000000001C609.244 4182.800000000001 609.198 4183.220000000001 609.198 4183.6500000000015V4184.980000000001C609.198 4188.140000000001 611.6329999999999 4190.730000000001 614.703 4190.930000000001V4197.010000000001ZM585.637 4150.69C585.188 4150.24 584.4609999999999 4150.24 584.0129999999999 4150.69L575.757 4159.04L574.757 4156.42C574.5279999999999 4155.82 573.8639999999999 4155.53 573.2719999999999 4155.76C572.68 4155.99 572.386 4156.66 572.6149999999999 4157.26L574.2499999999999 4161.54C574.3899999999999 4161.9 574.7039999999998 4162.17 575.0839999999998 4162.25C575.1629999999998 4162.27 575.2419999999998 4162.28 575.3209999999998 4162.28C575.6229999999998 4162.28 575.9159999999998 4162.16 576.1329999999998 4161.94L585.6369999999998 4152.33C586.0849999999998 4151.88 586.0849999999998 4151.15 585.6369999999998 4150.69ZM579.255 4145C573.082 4145 568.059 4150.08 568.059 4156.32C568.059 4162.549999999999 573.082 4167.63 579.255 4167.63C585.428 4167.63 590.451 4162.55 590.451 4156.32C590.451 4150.08 585.429 4145 579.255 4145ZM579.255 4165.31C574.348 4165.31 570.356 4161.27 570.356 4156.31C570.356 4151.360000000001 574.348 4147.320000000001 579.255 4147.320000000001C584.162 4147.320000000001 588.154 4151.360000000001 588.154 4156.31C588.154 4161.27 584.162 4165.31 579.255 4165.31Z " fill="#51c2ca" fill-opacity="1" transform="matrix(1,0,0,1,-541,-4145)"></path></svg>