<svg id="SvgjsSvg1016" xmlns="http://www.w3.org/2000/svg" version="1.1" xmlns:xlink="http://www.w3.org/1999/xlink" xmlns:svgjs="http://svgjs.com/svgjs" width="70" height="70" viewBox="0 0 70 70"><title>Shape 1</title><desc>Created with Avocode.</desc><defs id="SvgjsDefs1017"></defs><path id="SvgjsPath1018" d="M960 4139C959.4 4139 958.913 4139.48 958.913 4140.07V4144.7699999999995C958.913 4145.37 959.4 4145.849999999999 960 4145.849999999999C960.6 4145.849999999999 961.087 4145.37 961.087 4144.7699999999995V4140.07C961.087 4139.48 960.6 4139 960 4139ZM960 4202.15C959.4 4202.15 958.913 4202.629999999999 958.913 4203.23V4207.929999999999C958.913 4208.5199999999995 959.4 4208.999999999999 960 4208.999999999999C960.6 4208.999999999999 961.087 4208.5199999999995 961.087 4207.929999999999V4203.23C961.087 4202.629999999999 960.6 4202.15 960 4202.15ZM930.788 4172.93H926.087C925.487 4172.93 925 4173.41 925 4174C925 4174.59 925.487 4175.07 926.087 4175.07H930.788C931.388 4175.07 931.875 4174.59 931.875 4174C931.875 4173.41 931.388 4172.93 930.788 4172.93ZM993.913 4172.93H989.212C988.612 4172.93 988.125 4173.41 988.125 4174C988.125 4174.59 988.612 4175.07 989.212 4175.07H993.913C994.513 4175.07 995 4174.59 995 4174C995 4173.41 994.513 4172.93 993.913 4172.93ZM940.107 4193.9C939.679 4193.49 938.991 4193.49 938.5699999999999 4193.91L935.246 4197.24C934.824 4197.66 934.829 4198.34 935.257 4198.75C935.4689999999999 4198.96 935.7439999999999 4199.06 936.02 4199.06C936.3009999999999 4199.06 936.581 4198.96 936.794 4198.740000000001L940.1179999999999 4195.420000000001C940.54 4195.000000000001 940.534 4194.320000000001 940.107 4193.900000000001ZM984.743 4149.25C984.316 4148.83 983.6270000000001 4148.84 983.206 4149.26L979.8820000000001 4152.58C979.46 4153 979.465 4153.68 979.893 4154.1C980.105 4154.3 980.38 4154.410000000001 980.6560000000001 4154.410000000001C980.937 4154.410000000001 981.2180000000001 4154.300000000001 981.4300000000001 4154.090000000001L984.7550000000001 4150.760000000001C985.1760000000002 4150.340000000001 985.1710000000002 4149.660000000001 984.7430000000002 4149.250000000001ZM984.755 4197.24L981.43 4193.91C981.0089999999999 4193.49 980.3209999999999 4193.49 979.8929999999999 4193.9C979.4659999999999 4194.32 979.4609999999999 4195 979.882 4195.42L983.2059999999999 4198.74C983.4189999999999 4198.96 983.6999999999999 4199.0599999999995 983.9809999999999 4199.0599999999995C984.2559999999999 4199.0599999999995 984.5319999999999 4198.959999999999 984.7439999999999 4198.749999999999C985.1709999999999 4198.339999999999 985.1759999999999 4197.659999999999 984.7549999999999 4197.239999999999ZM940.118 4152.58L936.7940000000001 4149.26C936.373 4148.83 935.6850000000001 4148.83 935.2570000000001 4149.25C934.83 4149.66 934.8240000000001 4150.34 935.2460000000001 4150.76L938.57 4154.09C938.782 4154.3 939.0630000000001 4154.41 939.344 4154.41C939.619 4154.41 939.8950000000001 4154.3 940.1070000000001 4154.099999999999C940.5350000000001 4153.679999999999 940.5400000000001 4152.999999999999 940.118 4152.579999999999ZM983.403 4165.31L976.048 4154.21C975.427 4153.28 974.383 4152.72 973.254 4152.72H957.681C957.081 4152.72 956.594 4153.2 956.594 4153.79C956.594 4154.38 957.081 4154.86 957.681 4154.86H957.979L952.772 4162.719999999999L947.565 4154.86H953.1880000000001C953.7890000000001 4154.86 954.2750000000001 4154.38 954.2750000000001 4153.79C954.2750000000001 4153.2 953.7890000000001 4152.72 953.1880000000001 4152.72H946.7460000000001C945.6160000000001 4152.72 944.5720000000001 4153.280000000001 943.9520000000001 4154.21L936.5970000000001 4165.31C935.7870000000001 4166.530000000001 935.873 4168.110000000001 936.8100000000001 4169.240000000001L957.4190000000001 4194.070000000001C958.056 4194.840000000001 958.9970000000001 4195.280000000001 960.0000000000001 4195.280000000001C961.0030000000002 4195.280000000001 961.9440000000001 4194.840000000001 962.5810000000001 4194.070000000001L974.2620000000002 4180.000000000001C974.6420000000002 4179.540000000001 974.5740000000002 4178.860000000001 974.1100000000001 4178.490000000001C973.6450000000001 4178.110000000001 972.9600000000002 4178.18 972.5800000000002 4178.64L962.1400000000001 4191.22L969.743 4168.35H981.118L975.5740000000001 4175.030000000001C975.1940000000001 4175.490000000001 975.2620000000001 4176.170000000001 975.7270000000001 4176.540000000001C975.9290000000001 4176.700000000001 976.1720000000001 4176.780000000001 976.4140000000001 4176.780000000001C976.7290000000002 4176.780000000001 977.041 4176.650000000001 977.2560000000001 4176.39L983.19 4169.240000000001C984.1270000000001 4168.110000000001 984.2130000000001 4166.530000000001 983.403 4165.31ZM972.435 4154.86L967.228 4162.719999999999L962.021 4154.86ZM945.544 4155.73L951.4739999999999 4164.679999999999L950.4559999999999 4166.209999999999H938.5969999999999ZM960.003 4190.76L955.628 4177.52C955.442 4176.96 954.8280000000001 4176.650000000001 954.258 4176.84C953.687 4177.02 953.375 4177.63 953.561 4178.1900000000005L957.8720000000001 4191.2300000000005L938.8820000000001 4168.35H950.311L952.24 4174.1900000000005C952.389 4174.64 952.815 4174.93 953.273 4174.93C953.384 4174.93 953.498 4174.91 953.61 4174.88C954.181 4174.6900000000005 954.493 4174.09 954.306 4173.53L952.5970000000001 4168.36H958.065C958.666 4168.36 959.152 4167.88 959.152 4167.28C959.152 4166.69 958.666 4166.21 958.065 4166.21H953.0530000000001L960.0000000000001 4155.7300000000005L966.9470000000001 4166.21H963.2650000000001C962.6640000000001 4166.21 962.1780000000001 4166.69 962.1780000000001 4167.28C962.1780000000001 4167.88 962.6640000000001 4168.36 963.2650000000001 4168.36H967.4550000000002ZM968.526 4164.68L974.457 4155.7300000000005L981.403 4166.21H969.544Z " fill="#51c2ca" fill-opacity="1" transform="matrix(1,0,0,1,-925,-4139)"></path></svg>