<svg id="SvgjsSvg1013" xmlns="http://www.w3.org/2000/svg" version="1.1" xmlns:xlink="http://www.w3.org/1999/xlink" xmlns:svgjs="http://svgjs.com/svgjs" width="16" height="16" viewBox="0 0 16 16"><title>Forma 1</title><desc>Created with Avocode.</desc><defs id="SvgjsDefs1014"></defs><path id="SvgjsPath1015" d="M1496.31 6859.31C1495.97 6859.31 1495.69 6859.030000000001 1495.69 6858.6900000000005V6857.460000000001C1495.69 6857.120000000001 1495.97 6856.850000000001 1496.31 6856.850000000001H1497.54C1497.8799999999999 6856.850000000001 1498.1499999999999 6857.120000000002 1498.1499999999999 6857.460000000001V6858.6900000000005C1498.1499999999999 6859.030000000001 1497.8799999999999 6859.31 1497.54 6859.31ZM1492 6860.65C1491.55 6860.65 1491.14 6860.78 1490.79 6861C1490.8999999999999 6860.97 1491.01 6860.94 1491.1299999999999 6860.94C1491.79 6860.94 1492.32 6861.48 1492.32 6862.129999999999C1492.32 6862.789999999999 1491.79 6863.319999999999 1491.1299999999999 6863.319999999999C1490.4799999999998 6863.319999999999 1489.9399999999998 6862.789999999999 1489.9399999999998 6862.129999999999C1489.9399999999998 6862.009999999999 1489.9699999999998 6861.9 1489.9999999999998 6861.789999999999C1489.7799999999997 6862.139999999999 1489.6499999999999 6862.549999999999 1489.6499999999999 6862.999999999999C1489.6499999999999 6864.299999999999 1490.6999999999998 6865.349999999999 1491.9999999999998 6865.349999999999C1493.2999999999997 6865.349999999999 1494.3499999999997 6864.299999999999 1494.3499999999997 6862.999999999999C1494.3499999999997 6861.699999999999 1493.2999999999997 6860.649999999999 1491.9999999999998 6860.649999999999ZM1492 6859.31C1494.04 6859.31 1495.69 6860.96 1495.69 6863C1495.69 6865.04 1494.04 6866.69 1492 6866.69C1489.96 6866.69 1488.31 6865.04 1488.31 6863C1488.31 6860.96 1489.96 6859.31 1492 6859.31C1494.04 6859.31 1492 6859.31 1492 6859.31ZM1492 6858.08C1489.29 6858.08 1487.08 6860.29 1487.08 6863C1487.08 6865.71 1489.29 6867.92 1492 6867.92C1494.71 6867.92 1496.92 6865.71 1496.92 6863C1496.92 6860.29 1494.71 6858.08 1492 6858.08ZM1497 6855H1487C1485.34 6855 1484 6856.34 1484 6858V6868C1484 6869.66 1485.34 6871 1487 6871H1497C1498.66 6871 1500 6869.66 1500 6868V6858C1500 6856.34 1498.66 6855 1497 6855ZM1498.77 6860.54H1494.75C1495.33 6861.19 1495.69 6862.05 1495.69 6863C1495.69 6865.04 1494.04 6866.69 1492 6866.69C1489.96 6866.69 1488.31 6865.04 1488.31 6863C1488.31 6862.05 1488.6699999999998 6861.19 1489.25 6860.54H1485.23V6858C1485.23 6857.02 1486.02 6856.23 1487 6856.23H1497C1497.98 6856.23 1498.77 6857.0199999999995 1498.77 6858Z " fill="#ffffff" fill-opacity="1" transform="matrix(1,0,0,1,-1484,-6855)"></path></svg>