<svg id="SvgjsSvg1000" xmlns="http://www.w3.org/2000/svg" version="1.1" xmlns:xlink="http://www.w3.org/1999/xlink" xmlns:svgjs="http://svgjs.com/svgjs" width="70" height="70" viewBox="0 0 70 70"><title>Shape 1</title><desc>Created with Avocode.</desc><defs id="SvgjsDefs1001"></defs><path id="SvgjsPath1007" d="M945.322 3405.42C943.455 3405.42 941.9350000000001 3406.94 941.9350000000001 3408.81C941.9350000000001 3410.67 943.455 3412.19 945.322 3412.19C947.19 3412.19 948.71 3410.67 948.71 3408.81C948.71 3406.94 947.19 3405.42 945.322 3405.42ZM945.322 3409.93C944.699 3409.93 944.194 3409.43 944.194 3408.81C944.194 3408.18 944.699 3407.68 945.322 3407.68C945.946 3407.68 946.452 3408.18 946.452 3408.81C946.452 3409.43 945.946 3409.93 945.322 3409.93ZM974.677 3412.19C976.5450000000001 3412.19 978.064 3410.67 978.064 3408.81C978.064 3406.94 976.545 3405.42 974.677 3405.42C972.8100000000001 3405.42 971.2900000000001 3406.94 971.2900000000001 3408.81C971.2900000000001 3410.67 972.8100000000001 3412.19 974.677 3412.19ZM974.677 3407.68C975.301 3407.68 975.806 3408.18 975.806 3408.81C975.806 3409.43 975.301 3409.93 974.677 3409.93C974.054 3409.93 973.548 3409.43 973.548 3408.81C973.548 3408.18 974.054 3407.68 974.677 3407.68ZM993.032 3378.5C994.301 3377.23 995 3375.54 995 3373.75C995 3370.05 991.987 3367.03 988.282 3367.03C986.571 3367.03 984.957 3367.67 983.71 3368.8300000000004C982.462 3367.6700000000005 980.849 3367.03 979.1370000000001 3367.03C975.4330000000001 3367.03 972.4190000000001 3370.05 972.4190000000001 3373.75C972.4190000000001 3375.54 973.118 3377.23 974.3870000000001 3378.5L982.581 3386.69V3389.31C982.581 3390.47 982.922 3391.6 983.563 3392.56L984.236 3393.57C984.63 3394.1600000000003 984.8389999999999 3394.8500000000004 984.8389999999999 3395.56C984.8389999999999 3396.52 984.4649999999999 3397.42 983.785 3398.1L980.044 3401.8399999999997C979.452 3401.45 978.784 3401.16 978.064 3401.0199999999995V3392.9999999999995C978.064 3387.3999999999996 973.507 3382.8399999999997 967.903 3382.8399999999997H952.097C946.4929999999999 3382.8399999999997 941.935 3387.3999999999996 941.935 3392.9999999999995V3401.0199999999995C940.9949999999999 3401.2099999999996 940.156 3401.6499999999996 939.448 3402.2499999999995L936.1419999999999 3398.2799999999997C935.51 3397.5199999999995 935.161 3396.56 935.161 3395.58C935.161 3394.2799999999997 935.7399999999999 3393.08 936.7489999999999 3392.27L938.487 3390.88C939.962 3389.7000000000003 940.8059999999999 3387.9500000000003 940.8059999999999 3386.06C940.8059999999999 3384.41 940.1639999999999 3382.86 938.997 3381.69L938.5659999999999 3381.26C937.8269999999999 3380.5200000000004 937.4189999999999 3379.5400000000004 937.4189999999999 3378.4900000000002V3377.6600000000003L945.6129999999998 3369.4700000000003C946.8819999999998 3368.2000000000003 947.5809999999998 3366.51 947.5809999999998 3364.7200000000003C947.5809999999998 3361.01 944.5669999999998 3358.0000000000005 940.8629999999998 3358.0000000000005C939.1509999999998 3358.0000000000005 937.5369999999998 3358.6400000000003 936.2899999999998 3359.8000000000006C935.0429999999999 3358.640000000001 933.4289999999999 3358.0000000000005 931.7179999999998 3358.0000000000005C928.0129999999998 3358.0000000000005 924.9999999999999 3361.0100000000007 924.9999999999999 3364.7200000000003C924.9999999999999 3366.51 925.6989999999998 3368.2000000000003 926.9679999999998 3369.4700000000003L935.1609999999998 3377.6600000000003V3378.4900000000002C935.1609999999998 3380.1400000000003 935.8039999999999 3381.69 936.9699999999998 3382.86L937.3999999999997 3383.29C938.1409999999997 3384.0299999999997 938.5479999999998 3385.0099999999998 938.5479999999998 3386.06C938.5479999999998 3387.2599999999998 938.0119999999998 3388.37 937.0769999999998 3389.12L935.3369999999998 3390.5099999999998C933.7909999999997 3391.7499999999995 932.9029999999998 3393.5899999999997 932.9029999999998 3395.58C932.9029999999998 3397.09 933.4369999999998 3398.56 934.4069999999998 3399.73L938.0199999999999 3404.07C937.6469999999998 3404.82 937.4189999999999 3405.65 937.4189999999999 3406.55V3416.71C935.5519999999999 3416.71 934.0319999999999 3418.23 934.0319999999999 3420.1C934.0319999999999 3421.96 935.5519999999999 3423.48 937.4189999999999 3423.48H939.6769999999999C939.6769999999999 3425.97 941.7029999999999 3428 944.194 3428C946.684 3428 948.7099999999999 3425.97 948.7099999999999 3423.48H971.29C971.29 3425.97 973.3159999999999 3428 975.8059999999999 3428C978.2969999999999 3428 980.323 3425.97 980.323 3423.48H982.581C984.448 3423.48 985.968 3421.96 985.968 3420.1C985.968 3418.23 984.448 3416.71 982.581 3416.71V3406.55C982.581 3405.4 982.232 3404.3300000000004 981.64 3403.44L985.382 3399.7000000000003C986.4879999999999 3398.59 987.097 3397.1200000000003 987.097 3395.5600000000004C987.097 3394.4000000000005 986.756 3393.28 986.115 3392.3100000000004L985.442 3391.3C985.048 3390.71 984.839 3390.02 984.839 3389.3100000000004V3386.6900000000005ZM936.29 3375.6L928.564 3367.87C927.722 3367.0299999999997 927.2579999999999 3365.91 927.2579999999999 3364.72C927.2579999999999 3362.2599999999998 929.2589999999999 3360.2599999999998 931.718 3360.2599999999998C932.909 3360.2599999999998 934.029 3360.72 934.871 3361.56L936.29 3362.98L937.709 3361.56C938.5519999999999 3360.72 939.6719999999999 3360.2599999999998 940.8629999999999 3360.2599999999998C943.3209999999999 3360.2599999999998 945.3219999999999 3362.2599999999998 945.3219999999999 3364.72C945.3219999999999 3365.91 944.8579999999998 3367.0299999999997 944.0159999999998 3367.87ZM980.323 3406.55V3416.71H967.903V3403.16H976.9350000000001C978.8030000000001 3403.16 980.3230000000001 3404.68 980.3230000000001 3406.5499999999997ZM944.194 3393C944.194 3388.64 947.74 3385.1 952.097 3385.1H967.903C972.26 3385.1 975.806 3388.64 975.806 3393V3400.9H967.903C967.903 3399.6600000000003 966.889 3398.64 965.645 3398.64H954.355C953.11 3398.64 952.097 3399.66 952.097 3400.9H944.194ZM965.645 3405.42V3407.6800000000003H954.355V3405.42H961.129V3403.16H954.355V3400.8999999999996H965.645V3403.16H963.387V3405.42ZM954.355 3412.19V3409.93H965.645V3412.19ZM965.645 3414.45V3416.71H954.355V3414.45ZM939.677 3406.55C939.677 3404.6800000000003 941.197 3403.1600000000003 943.064 3403.1600000000003H952.097V3416.7100000000005H939.677ZM944.194 3425.74C942.948 3425.74 941.935 3424.7299999999996 941.935 3423.4799999999996H946.452C946.452 3424.7299999999996 945.438 3425.74 944.194 3425.74ZM975.806 3425.74C974.561 3425.74 973.548 3424.7299999999996 973.548 3423.4799999999996H978.064C978.064 3424.7299999999996 977.0509999999999 3425.74 975.8059999999999 3425.74ZM982.581 3418.97C983.2040000000001 3418.97 983.71 3419.47 983.71 3420.1C983.71 3420.72 983.2040000000001 3421.23 982.581 3421.23H937.419C936.7959999999999 3421.23 936.29 3420.72 936.29 3420.1C936.29 3419.47 936.7959999999999 3418.97 937.419 3418.97ZM983.71 3384.63L975.984 3376.9C975.1410000000001 3376.06 974.677 3374.94 974.677 3373.75C974.677 3371.29 976.678 3369.29 979.1370000000001 3369.29C980.3280000000001 3369.29 981.4480000000001 3369.75 982.2900000000001 3370.6L983.71 3372.02L985.129 3370.6C985.971 3369.75 987.091 3369.29 988.282 3369.29C990.741 3369.29 992.7420000000001 3371.29 992.7420000000001 3373.75C992.7420000000001 3374.94 992.278 3376.06 991.436 3376.9ZM984.507 3381.38L982.91 3379.78L988.555 3374.1400000000003L990.151 3375.7400000000002ZM937.088 3372.35L935.491 3370.75L941.135 3365.11L942.732 3366.7000000000003ZM946 3399V3396H949V3399ZM953.226 3389.61V3387.35H952.097C948.9839999999999 3387.35 946.452 3389.89 946.452 3393V3394.13H948.71V3393C948.71 3391.13 950.229 3389.61 952.097 3389.61Z " fill="#ffffff" fill-opacity="1" transform="matrix(1,0,0,1,-925,-3358)"></path></svg>