<svg id="SvgjsSvg1020" xmlns="http://www.w3.org/2000/svg" version="1.1" xmlns:xlink="http://www.w3.org/1999/xlink" xmlns:svgjs="http://svgjs.com/svgjs" width="16" height="17" viewBox="0 0 16 17"><title>Forma 1</title><desc>Created with Avocode.</desc><defs id="SvgjsDefs1021"></defs><path id="SvgjsPath1022" d="M1497.75 1081.48L1493.81 1077.28C1494.82 1076.04 1495.3799999999999 1074.48 1495.3799999999999 1072.86C1495.3799999999999 1069.08 1492.3799999999999 1066 1488.6899999999998 1066C1484.9999999999998 1066 1481.9999999999998 1069.08 1481.9999999999998 1072.86C1481.9999999999998 1076.6499999999999 1484.9999999999998 1079.7299999999998 1488.6899999999998 1079.7299999999998C1490.07 1079.7299999999998 1491.3899999999999 1079.2999999999997 1492.5199999999998 1078.4899999999998L1496.4899999999998 1082.7299999999998C1496.6599999999999 1082.8999999999999 1496.8799999999999 1082.9999999999998 1497.12 1082.9999999999998C1497.35 1082.9999999999998 1497.56 1082.9099999999999 1497.7299999999998 1082.7499999999998C1498.0699999999997 1082.4099999999999 1498.0799999999997 1081.8399999999997 1497.7499999999998 1081.4799999999998ZM1488.69 1067.79C1491.41 1067.79 1493.63 1070.07 1493.63 1072.86C1493.63 1075.6599999999999 1491.41 1077.9399999999998 1488.69 1077.9399999999998C1485.96 1077.9399999999998 1483.74 1075.6599999999999 1483.74 1072.86C1483.74 1070.07 1485.96 1067.79 1488.69 1067.79Z " fill="#ffffff" fill-opacity="1" transform="matrix(1,0,0,1,-1482,-1066)"></path></svg>