<svg id="SvgjsSvg1000" xmlns="http://www.w3.org/2000/svg" version="1.1" xmlns:xlink="http://www.w3.org/1999/xlink" xmlns:svgjs="http://svgjs.com/svgjs" width="160" height="15" viewBox="0 0 160 15"><title>Shape 2</title><desc>Created with Avocode.</desc><defs id="SvgjsDefs1001"><clipPath id="SvgjsClipPath1012"><path id="SvgjsPath1011" d="M959.5 894C963.642 894 967 897.358 967 901.5C967 905.642 963.642 909 959.5 909C955.358 909 952 905.642 952 901.5C952 897.358 955.358 894 959.5 894Z " fill="#ffffff"></path></clipPath><clipPath id="SvgjsClipPath1016"><path id="SvgjsPath1015" d="M959.5 899C960.881 899 962 900.119 962 901.5C962 902.881 960.881 904 959.5 904C958.119 904 957 902.881 957 901.5C957 900.119 958.119 899 959.5 899Z " fill="#ffffff"></path></clipPath></defs><path id="SvgjsPath1007" d="M880 901V900H1040V901Z " fill="#50c2ca" fill-opacity="1" transform="matrix(1,0,0,1,-880,-894)"></path><path id="SvgjsPath1008" d="M880 904V902.999H1040V904Z " fill="#50c2ca" fill-opacity="1" transform="matrix(1,0,0,1,-880,-894)"></path><path id="SvgjsPath1009" d="M959.5 894C963.642 894 967 897.358 967 901.5C967 905.642 963.642 909 959.5 909C955.358 909 952 905.642 952 901.5C952 897.358 955.358 894 959.5 894Z " fill="#ffffff" fill-opacity="1" transform="matrix(1,0,0,1,-880,-894)"></path><path id="SvgjsPath1010" d="M959.5 894C963.642 894 967 897.358 967 901.5C967 905.642 963.642 909 959.5 909C955.358 909 952 905.642 952 901.5C952 897.358 955.358 894 959.5 894Z " fill-opacity="0" fill="#ffffff" stroke-dasharray="0" stroke-linejoin="miter" stroke-linecap="butt" stroke-opacity="1" stroke="#50c2ca" stroke-miterlimit="50" stroke-width="2" clip-path="url(&quot;#SvgjsClipPath1012&quot;)" transform="matrix(1,0,0,1,-880,-894)"></path><path id="SvgjsPath1013" d="M959.5 899C960.881 899 962 900.119 962 901.5C962 902.881 960.881 904 959.5 904C958.119 904 957 902.881 957 901.5C957 900.119 958.119 899 959.5 899Z " fill="#ffffff" fill-opacity="1" transform="matrix(1,0,0,1,-880,-894)"></path><path id="SvgjsPath1014" d="M959.5 899C960.881 899 962 900.119 962 901.5C962 902.881 960.881 904 959.5 904C958.119 904 957 902.881 957 901.5C957 900.119 958.119 899 959.5 899Z " fill-opacity="0" fill="#ffffff" stroke-dasharray="0" stroke-linejoin="miter" stroke-linecap="butt" stroke-opacity="1" stroke="#50c2ca" stroke-miterlimit="50" stroke-width="2" clip-path="url(&quot;#SvgjsClipPath1016&quot;)" transform="matrix(1,0,0,1,-880,-894)"></path></svg>